<?xml version="1.0" encoding="utf-8"?>
<!DOCTYPE svg PUBLIC "-//W3C//DTD SVG 20010904//EN" "http://www.w3.org/TR/2001/REC-SVG-20010904/DTD/svg10.dtd">
<svg xmlns="http://www.w3.org/2000/svg" xml:space="preserve" xmlns:xlink="http://www.w3.org/1999/xlink" width="999" height="999" viewBox="0 0 999 999">
<defs>
<mask id="qrmask"><g fill="#ffffff">
<g transform="translate(270,54) scale(4.5)"><rect width="6" height="6"/></g>
<g transform="translate(324,54) scale(4.5)"><rect width="6" height="6"/></g>
<g transform="translate(405,54) scale(4.5)"><rect width="6" height="6"/></g>
<g transform="translate(432,54) scale(4.5)"><rect width="6" height="6"/></g>
<g transform="translate(459,54) scale(4.5)"><rect width="6" height="6"/></g>
<g transform="translate(513,54) scale(4.5)"><rect width="6" height="6"/></g>
<g transform="translate(540,54) scale(4.5)"><rect width="6" height="6"/></g>
<g transform="translate(567,54) scale(4.5)"><rect width="6" height="6"/></g>
<g transform="translate(594,54) scale(4.5)"><rect width="6" height="6"/></g>
<g transform="translate(675,54) scale(4.5)"><rect width="6" height="6"/></g>
<g transform="translate(702,54) scale(4.5)"><rect width="6" height="6"/></g>
<g transform="translate(270,81) scale(4.5)"><rect width="6" height="6"/></g>
<g transform="translate(351,81) scale(4.5)"><rect width="6" height="6"/></g>
<g transform="translate(432,81) scale(4.5)"><rect width="6" height="6"/></g>
<g transform="translate(486,81) scale(4.5)"><rect width="6" height="6"/></g>
<g transform="translate(648,81) scale(4.5)"><rect width="6" height="6"/></g>
<g transform="translate(702,81) scale(4.5)"><rect width="6" height="6"/></g>
<g transform="translate(270,108) scale(4.5)"><rect width="6" height="6"/></g>
<g transform="translate(324,108) scale(4.5)"><rect width="6" height="6"/></g>
<g transform="translate(351,108) scale(4.5)"><rect width="6" height="6"/></g>
<g transform="translate(378,108) scale(4.5)"><rect width="6" height="6"/></g>
<g transform="translate(405,108) scale(4.5)"><rect width="6" height="6"/></g>
<g transform="translate(486,108) scale(4.5)"><rect width="6" height="6"/></g>
<g transform="translate(513,108) scale(4.5)"><rect width="6" height="6"/></g>
<g transform="translate(621,108) scale(4.5)"><rect width="6" height="6"/></g>
<g transform="translate(648,108) scale(4.5)"><rect width="6" height="6"/></g>
<g transform="translate(675,108) scale(4.5)"><rect width="6" height="6"/></g>
<g transform="translate(702,108) scale(4.5)"><rect width="6" height="6"/></g>
<g transform="translate(297,135) scale(4.5)"><rect width="6" height="6"/></g>
<g transform="translate(324,135) scale(4.5)"><rect width="6" height="6"/></g>
<g transform="translate(432,135) scale(4.5)"><rect width="6" height="6"/></g>
<g transform="translate(486,135) scale(4.5)"><rect width="6" height="6"/></g>
<g transform="translate(513,135) scale(4.5)"><rect width="6" height="6"/></g>
<g transform="translate(648,135) scale(4.5)"><rect width="6" height="6"/></g>
<g transform="translate(675,135) scale(4.5)"><rect width="6" height="6"/></g>
<g transform="translate(702,135) scale(4.5)"><rect width="6" height="6"/></g>
<g transform="translate(297,162) scale(4.5)"><rect width="6" height="6"/></g>
<g transform="translate(378,162) scale(4.5)"><rect width="6" height="6"/></g>
<g transform="translate(405,162) scale(4.5)"><rect width="6" height="6"/></g>
<g transform="translate(513,162) scale(4.5)"><rect width="6" height="6"/></g>
<g transform="translate(540,162) scale(4.5)"><rect width="6" height="6"/></g>
<g transform="translate(567,162) scale(4.5)"><rect width="6" height="6"/></g>
<g transform="translate(675,162) scale(4.5)"><rect width="6" height="6"/></g>
<g transform="translate(270,189) scale(4.5)"><rect width="6" height="6"/></g>
<g transform="translate(297,189) scale(4.5)"><rect width="6" height="6"/></g>
<g transform="translate(378,189) scale(4.5)"><rect width="6" height="6"/></g>
<g transform="translate(405,189) scale(4.5)"><rect width="6" height="6"/></g>
<g transform="translate(486,189) scale(4.5)"><rect width="6" height="6"/></g>
<g transform="translate(594,189) scale(4.5)"><rect width="6" height="6"/></g>
<g transform="translate(648,189) scale(4.5)"><rect width="6" height="6"/></g>
<g transform="translate(270,216) scale(4.5)"><rect width="6" height="6"/></g>
<g transform="translate(324,216) scale(4.5)"><rect width="6" height="6"/></g>
<g transform="translate(378,216) scale(4.5)"><rect width="6" height="6"/></g>
<g transform="translate(432,216) scale(4.5)"><rect width="6" height="6"/></g>
<g transform="translate(486,216) scale(4.5)"><rect width="6" height="6"/></g>
<g transform="translate(540,216) scale(4.5)"><rect width="6" height="6"/></g>
<g transform="translate(594,216) scale(4.5)"><rect width="6" height="6"/></g>
<g transform="translate(648,216) scale(4.5)"><rect width="6" height="6"/></g>
<g transform="translate(702,216) scale(4.5)"><rect width="6" height="6"/></g>
<g transform="translate(270,243) scale(4.5)"><rect width="6" height="6"/></g>
<g transform="translate(324,243) scale(4.5)"><rect width="6" height="6"/></g>
<g transform="translate(378,243) scale(4.5)"><rect width="6" height="6"/></g>
<g transform="translate(432,243) scale(4.5)"><rect width="6" height="6"/></g>
<g transform="translate(513,243) scale(4.5)"><rect width="6" height="6"/></g>
<g transform="translate(540,243) scale(4.5)"><rect width="6" height="6"/></g>
<g transform="translate(621,243) scale(4.5)"><rect width="6" height="6"/></g>
<g transform="translate(675,243) scale(4.5)"><rect width="6" height="6"/></g>
<g transform="translate(702,243) scale(4.5)"><rect width="6" height="6"/></g>
<g transform="translate(108,270) scale(4.5)"><rect width="6" height="6"/></g>
<g transform="translate(135,270) scale(4.5)"><rect width="6" height="6"/></g>
<g transform="translate(162,270) scale(4.5)"><rect width="6" height="6"/></g>
<g transform="translate(216,270) scale(4.5)"><rect width="6" height="6"/></g>
<g transform="translate(270,270) scale(4.5)"><rect width="6" height="6"/></g>
<g transform="translate(297,270) scale(4.5)"><rect width="6" height="6"/></g>
<g transform="translate(378,270) scale(4.5)"><rect width="6" height="6"/></g>
<g transform="translate(405,270) scale(4.5)"><rect width="6" height="6"/></g>
<g transform="translate(486,270) scale(4.5)"><rect width="6" height="6"/></g>
<g transform="translate(540,270) scale(4.5)"><rect width="6" height="6"/></g>
<g transform="translate(567,270) scale(4.5)"><rect width="6" height="6"/></g>
<g transform="translate(648,270) scale(4.5)"><rect width="6" height="6"/></g>
<g transform="translate(702,270) scale(4.5)"><rect width="6" height="6"/></g>
<g transform="translate(729,270) scale(4.5)"><rect width="6" height="6"/></g>
<g transform="translate(756,270) scale(4.5)"><rect width="6" height="6"/></g>
<g transform="translate(783,270) scale(4.5)"><rect width="6" height="6"/></g>
<g transform="translate(864,270) scale(4.5)"><rect width="6" height="6"/></g>
<g transform="translate(891,270) scale(4.5)"><rect width="6" height="6"/></g>
<g transform="translate(918,270) scale(4.5)"><rect width="6" height="6"/></g>
<g transform="translate(81,297) scale(4.5)"><rect width="6" height="6"/></g>
<g transform="translate(108,297) scale(4.5)"><rect width="6" height="6"/></g>
<g transform="translate(135,297) scale(4.5)"><rect width="6" height="6"/></g>
<g transform="translate(243,297) scale(4.5)"><rect width="6" height="6"/></g>
<g transform="translate(270,297) scale(4.5)"><rect width="6" height="6"/></g>
<g transform="translate(297,297) scale(4.5)"><rect width="6" height="6"/></g>
<g transform="translate(324,297) scale(4.5)"><rect width="6" height="6"/></g>
<g transform="translate(378,297) scale(4.5)"><rect width="6" height="6"/></g>
<g transform="translate(405,297) scale(4.5)"><rect width="6" height="6"/></g>
<g transform="translate(432,297) scale(4.5)"><rect width="6" height="6"/></g>
<g transform="translate(486,297) scale(4.5)"><rect width="6" height="6"/></g>
<g transform="translate(513,297) scale(4.5)"><rect width="6" height="6"/></g>
<g transform="translate(594,297) scale(4.5)"><rect width="6" height="6"/></g>
<g transform="translate(648,297) scale(4.5)"><rect width="6" height="6"/></g>
<g transform="translate(675,297) scale(4.5)"><rect width="6" height="6"/></g>
<g transform="translate(729,297) scale(4.5)"><rect width="6" height="6"/></g>
<g transform="translate(756,297) scale(4.5)"><rect width="6" height="6"/></g>
<g transform="translate(864,297) scale(4.5)"><rect width="6" height="6"/></g>
<g transform="translate(918,297) scale(4.5)"><rect width="6" height="6"/></g>
<g transform="translate(135,324) scale(4.5)"><rect width="6" height="6"/></g>
<g transform="translate(189,324) scale(4.5)"><rect width="6" height="6"/></g>
<g transform="translate(216,324) scale(4.5)"><rect width="6" height="6"/></g>
<g transform="translate(243,324) scale(4.5)"><rect width="6" height="6"/></g>
<g transform="translate(432,324) scale(4.5)"><rect width="6" height="6"/></g>
<g transform="translate(594,324) scale(4.5)"><rect width="6" height="6"/></g>
<g transform="translate(648,324) scale(4.5)"><rect width="6" height="6"/></g>
<g transform="translate(783,324) scale(4.5)"><rect width="6" height="6"/></g>
<g transform="translate(837,324) scale(4.5)"><rect width="6" height="6"/></g>
<g transform="translate(891,324) scale(4.5)"><rect width="6" height="6"/></g>
<g transform="translate(108,351) scale(4.5)"><rect width="6" height="6"/></g>
<g transform="translate(162,351) scale(4.5)"><rect width="6" height="6"/></g>
<g transform="translate(243,351) scale(4.5)"><rect width="6" height="6"/></g>
<g transform="translate(270,351) scale(4.5)"><rect width="6" height="6"/></g>
<g transform="translate(405,351) scale(4.5)"><rect width="6" height="6"/></g>
<g transform="translate(432,351) scale(4.5)"><rect width="6" height="6"/></g>
<g transform="translate(459,351) scale(4.5)"><rect width="6" height="6"/></g>
<g transform="translate(486,351) scale(4.5)"><rect width="6" height="6"/></g>
<g transform="translate(540,351) scale(4.5)"><rect width="6" height="6"/></g>
<g transform="translate(567,351) scale(4.5)"><rect width="6" height="6"/></g>
<g transform="translate(621,351) scale(4.5)"><rect width="6" height="6"/></g>
<g transform="translate(648,351) scale(4.5)"><rect width="6" height="6"/></g>
<g transform="translate(675,351) scale(4.5)"><rect width="6" height="6"/></g>
<g transform="translate(729,351) scale(4.5)"><rect width="6" height="6"/></g>
<g transform="translate(837,351) scale(4.5)"><rect width="6" height="6"/></g>
<g transform="translate(864,351) scale(4.5)"><rect width="6" height="6"/></g>
<g transform="translate(891,351) scale(4.5)"><rect width="6" height="6"/></g>
<g transform="translate(918,351) scale(4.5)"><rect width="6" height="6"/></g>
<g transform="translate(54,378) scale(4.5)"><rect width="6" height="6"/></g>
<g transform="translate(108,378) scale(4.5)"><rect width="6" height="6"/></g>
<g transform="translate(135,378) scale(4.5)"><rect width="6" height="6"/></g>
<g transform="translate(162,378) scale(4.5)"><rect width="6" height="6"/></g>
<g transform="translate(216,378) scale(4.5)"><rect width="6" height="6"/></g>
<g transform="translate(270,378) scale(4.5)"><rect width="6" height="6"/></g>
<g transform="translate(297,378) scale(4.5)"><rect width="6" height="6"/></g>
<g transform="translate(324,378) scale(4.5)"><rect width="6" height="6"/></g>
<g transform="translate(351,378) scale(4.5)"><rect width="6" height="6"/></g>
<g transform="translate(405,378) scale(4.5)"><rect width="6" height="6"/></g>
<g transform="translate(486,378) scale(4.5)"><rect width="6" height="6"/></g>
<g transform="translate(513,378) scale(4.5)"><rect width="6" height="6"/></g>
<g transform="translate(540,378) scale(4.5)"><rect width="6" height="6"/></g>
<g transform="translate(594,378) scale(4.5)"><rect width="6" height="6"/></g>
<g transform="translate(648,378) scale(4.5)"><rect width="6" height="6"/></g>
<g transform="translate(675,378) scale(4.5)"><rect width="6" height="6"/></g>
<g transform="translate(702,378) scale(4.5)"><rect width="6" height="6"/></g>
<g transform="translate(729,378) scale(4.5)"><rect width="6" height="6"/></g>
<g transform="translate(810,378) scale(4.5)"><rect width="6" height="6"/></g>
<g transform="translate(837,378) scale(4.5)"><rect width="6" height="6"/></g>
<g transform="translate(54,405) scale(4.5)"><rect width="6" height="6"/></g>
<g transform="translate(189,405) scale(4.5)"><rect width="6" height="6"/></g>
<g transform="translate(243,405) scale(4.5)"><rect width="6" height="6"/></g>
<g transform="translate(324,405) scale(4.5)"><rect width="6" height="6"/></g>
<g transform="translate(567,405) scale(4.5)"><rect width="6" height="6"/></g>
<g transform="translate(594,405) scale(4.5)"><rect width="6" height="6"/></g>
<g transform="translate(675,405) scale(4.5)"><rect width="6" height="6"/></g>
<g transform="translate(756,405) scale(4.5)"><rect width="6" height="6"/></g>
<g transform="translate(837,405) scale(4.5)"><rect width="6" height="6"/></g>
<g transform="translate(918,405) scale(4.5)"><rect width="6" height="6"/></g>
<g transform="translate(81,432) scale(4.5)"><rect width="6" height="6"/></g>
<g transform="translate(162,432) scale(4.5)"><rect width="6" height="6"/></g>
<g transform="translate(189,432) scale(4.5)"><rect width="6" height="6"/></g>
<g transform="translate(216,432) scale(4.5)"><rect width="6" height="6"/></g>
<g transform="translate(243,432) scale(4.5)"><rect width="6" height="6"/></g>
<g transform="translate(324,432) scale(4.5)"><rect width="6" height="6"/></g>
<g transform="translate(351,432) scale(4.5)"><rect width="6" height="6"/></g>
<g transform="translate(459,432) scale(4.5)"><rect width="6" height="6"/></g>
<g transform="translate(648,432) scale(4.5)"><rect width="6" height="6"/></g>
<g transform="translate(702,432) scale(4.5)"><rect width="6" height="6"/></g>
<g transform="translate(891,432) scale(4.5)"><rect width="6" height="6"/></g>
<g transform="translate(54,459) scale(4.5)"><rect width="6" height="6"/></g>
<g transform="translate(108,459) scale(4.5)"><rect width="6" height="6"/></g>
<g transform="translate(189,459) scale(4.5)"><rect width="6" height="6"/></g>
<g transform="translate(324,459) scale(4.5)"><rect width="6" height="6"/></g>
<g transform="translate(378,459) scale(4.5)"><rect width="6" height="6"/></g>
<g transform="translate(405,459) scale(4.5)"><rect width="6" height="6"/></g>
<g transform="translate(459,459) scale(4.5)"><rect width="6" height="6"/></g>
<g transform="translate(486,459) scale(4.5)"><rect width="6" height="6"/></g>
<g transform="translate(540,459) scale(4.5)"><rect width="6" height="6"/></g>
<g transform="translate(567,459) scale(4.5)"><rect width="6" height="6"/></g>
<g transform="translate(621,459) scale(4.5)"><rect width="6" height="6"/></g>
<g transform="translate(648,459) scale(4.5)"><rect width="6" height="6"/></g>
<g transform="translate(756,459) scale(4.5)"><rect width="6" height="6"/></g>
<g transform="translate(837,459) scale(4.5)"><rect width="6" height="6"/></g>
<g transform="translate(864,459) scale(4.5)"><rect width="6" height="6"/></g>
<g transform="translate(918,459) scale(4.5)"><rect width="6" height="6"/></g>
<g transform="translate(54,486) scale(4.5)"><rect width="6" height="6"/></g>
<g transform="translate(81,486) scale(4.5)"><rect width="6" height="6"/></g>
<g transform="translate(162,486) scale(4.5)"><rect width="6" height="6"/></g>
<g transform="translate(189,486) scale(4.5)"><rect width="6" height="6"/></g>
<g transform="translate(216,486) scale(4.5)"><rect width="6" height="6"/></g>
<g transform="translate(297,486) scale(4.5)"><rect width="6" height="6"/></g>
<g transform="translate(324,486) scale(4.5)"><rect width="6" height="6"/></g>
<g transform="translate(351,486) scale(4.5)"><rect width="6" height="6"/></g>
<g transform="translate(378,486) scale(4.5)"><rect width="6" height="6"/></g>
<g transform="translate(405,486) scale(4.5)"><rect width="6" height="6"/></g>
<g transform="translate(459,486) scale(4.5)"><rect width="6" height="6"/></g>
<g transform="translate(486,486) scale(4.5)"><rect width="6" height="6"/></g>
<g transform="translate(513,486) scale(4.5)"><rect width="6" height="6"/></g>
<g transform="translate(540,486) scale(4.5)"><rect width="6" height="6"/></g>
<g transform="translate(567,486) scale(4.5)"><rect width="6" height="6"/></g>
<g transform="translate(810,486) scale(4.5)"><rect width="6" height="6"/></g>
<g transform="translate(108,513) scale(4.5)"><rect width="6" height="6"/></g>
<g transform="translate(135,513) scale(4.5)"><rect width="6" height="6"/></g>
<g transform="translate(162,513) scale(4.5)"><rect width="6" height="6"/></g>
<g transform="translate(243,513) scale(4.5)"><rect width="6" height="6"/></g>
<g transform="translate(270,513) scale(4.5)"><rect width="6" height="6"/></g>
<g transform="translate(297,513) scale(4.5)"><rect width="6" height="6"/></g>
<g transform="translate(351,513) scale(4.5)"><rect width="6" height="6"/></g>
<g transform="translate(405,513) scale(4.5)"><rect width="6" height="6"/></g>
<g transform="translate(540,513) scale(4.5)"><rect width="6" height="6"/></g>
<g transform="translate(567,513) scale(4.5)"><rect width="6" height="6"/></g>
<g transform="translate(621,513) scale(4.5)"><rect width="6" height="6"/></g>
<g transform="translate(675,513) scale(4.5)"><rect width="6" height="6"/></g>
<g transform="translate(702,513) scale(4.5)"><rect width="6" height="6"/></g>
<g transform="translate(756,513) scale(4.5)"><rect width="6" height="6"/></g>
<g transform="translate(918,513) scale(4.5)"><rect width="6" height="6"/></g>
<g transform="translate(54,540) scale(4.5)"><rect width="6" height="6"/></g>
<g transform="translate(81,540) scale(4.5)"><rect width="6" height="6"/></g>
<g transform="translate(108,540) scale(4.5)"><rect width="6" height="6"/></g>
<g transform="translate(135,540) scale(4.5)"><rect width="6" height="6"/></g>
<g transform="translate(162,540) scale(4.5)"><rect width="6" height="6"/></g>
<g transform="translate(189,540) scale(4.5)"><rect width="6" height="6"/></g>
<g transform="translate(216,540) scale(4.5)"><rect width="6" height="6"/></g>
<g transform="translate(324,540) scale(4.5)"><rect width="6" height="6"/></g>
<g transform="translate(351,540) scale(4.5)"><rect width="6" height="6"/></g>
<g transform="translate(432,540) scale(4.5)"><rect width="6" height="6"/></g>
<g transform="translate(486,540) scale(4.5)"><rect width="6" height="6"/></g>
<g transform="translate(513,540) scale(4.5)"><rect width="6" height="6"/></g>
<g transform="translate(567,540) scale(4.5)"><rect width="6" height="6"/></g>
<g transform="translate(594,540) scale(4.5)"><rect width="6" height="6"/></g>
<g transform="translate(648,540) scale(4.5)"><rect width="6" height="6"/></g>
<g transform="translate(810,540) scale(4.5)"><rect width="6" height="6"/></g>
<g transform="translate(864,540) scale(4.5)"><rect width="6" height="6"/></g>
<g transform="translate(891,540) scale(4.5)"><rect width="6" height="6"/></g>
<g transform="translate(54,567) scale(4.5)"><rect width="6" height="6"/></g>
<g transform="translate(108,567) scale(4.5)"><rect width="6" height="6"/></g>
<g transform="translate(135,567) scale(4.5)"><rect width="6" height="6"/></g>
<g transform="translate(162,567) scale(4.5)"><rect width="6" height="6"/></g>
<g transform="translate(243,567) scale(4.5)"><rect width="6" height="6"/></g>
<g transform="translate(297,567) scale(4.5)"><rect width="6" height="6"/></g>
<g transform="translate(378,567) scale(4.5)"><rect width="6" height="6"/></g>
<g transform="translate(432,567) scale(4.5)"><rect width="6" height="6"/></g>
<g transform="translate(459,567) scale(4.5)"><rect width="6" height="6"/></g>
<g transform="translate(621,567) scale(4.5)"><rect width="6" height="6"/></g>
<g transform="translate(648,567) scale(4.5)"><rect width="6" height="6"/></g>
<g transform="translate(675,567) scale(4.5)"><rect width="6" height="6"/></g>
<g transform="translate(702,567) scale(4.5)"><rect width="6" height="6"/></g>
<g transform="translate(756,567) scale(4.5)"><rect width="6" height="6"/></g>
<g transform="translate(810,567) scale(4.5)"><rect width="6" height="6"/></g>
<g transform="translate(837,567) scale(4.5)"><rect width="6" height="6"/></g>
<g transform="translate(864,567) scale(4.5)"><rect width="6" height="6"/></g>
<g transform="translate(891,567) scale(4.5)"><rect width="6" height="6"/></g>
<g transform="translate(81,594) scale(4.5)"><rect width="6" height="6"/></g>
<g transform="translate(135,594) scale(4.5)"><rect width="6" height="6"/></g>
<g transform="translate(189,594) scale(4.5)"><rect width="6" height="6"/></g>
<g transform="translate(216,594) scale(4.5)"><rect width="6" height="6"/></g>
<g transform="translate(243,594) scale(4.5)"><rect width="6" height="6"/></g>
<g transform="translate(270,594) scale(4.5)"><rect width="6" height="6"/></g>
<g transform="translate(378,594) scale(4.5)"><rect width="6" height="6"/></g>
<g transform="translate(405,594) scale(4.5)"><rect width="6" height="6"/></g>
<g transform="translate(513,594) scale(4.5)"><rect width="6" height="6"/></g>
<g transform="translate(540,594) scale(4.5)"><rect width="6" height="6"/></g>
<g transform="translate(567,594) scale(4.5)"><rect width="6" height="6"/></g>
<g transform="translate(648,594) scale(4.5)"><rect width="6" height="6"/></g>
<g transform="translate(702,594) scale(4.5)"><rect width="6" height="6"/></g>
<g transform="translate(783,594) scale(4.5)"><rect width="6" height="6"/></g>
<g transform="translate(810,594) scale(4.5)"><rect width="6" height="6"/></g>
<g transform="translate(837,594) scale(4.5)"><rect width="6" height="6"/></g>
<g transform="translate(891,594) scale(4.5)"><rect width="6" height="6"/></g>
<g transform="translate(54,621) scale(4.5)"><rect width="6" height="6"/></g>
<g transform="translate(81,621) scale(4.5)"><rect width="6" height="6"/></g>
<g transform="translate(162,621) scale(4.5)"><rect width="6" height="6"/></g>
<g transform="translate(189,621) scale(4.5)"><rect width="6" height="6"/></g>
<g transform="translate(243,621) scale(4.5)"><rect width="6" height="6"/></g>
<g transform="translate(270,621) scale(4.5)"><rect width="6" height="6"/></g>
<g transform="translate(297,621) scale(4.5)"><rect width="6" height="6"/></g>
<g transform="translate(351,621) scale(4.5)"><rect width="6" height="6"/></g>
<g transform="translate(594,621) scale(4.5)"><rect width="6" height="6"/></g>
<g transform="translate(621,621) scale(4.5)"><rect width="6" height="6"/></g>
<g transform="translate(675,621) scale(4.5)"><rect width="6" height="6"/></g>
<g transform="translate(756,621) scale(4.5)"><rect width="6" height="6"/></g>
<g transform="translate(864,621) scale(4.5)"><rect width="6" height="6"/></g>
<g transform="translate(891,621) scale(4.5)"><rect width="6" height="6"/></g>
<g transform="translate(918,621) scale(4.5)"><rect width="6" height="6"/></g>
<g transform="translate(54,648) scale(4.5)"><rect width="6" height="6"/></g>
<g transform="translate(216,648) scale(4.5)"><rect width="6" height="6"/></g>
<g transform="translate(270,648) scale(4.5)"><rect width="6" height="6"/></g>
<g transform="translate(297,648) scale(4.5)"><rect width="6" height="6"/></g>
<g transform="translate(324,648) scale(4.5)"><rect width="6" height="6"/></g>
<g transform="translate(351,648) scale(4.5)"><rect width="6" height="6"/></g>
<g transform="translate(378,648) scale(4.5)"><rect width="6" height="6"/></g>
<g transform="translate(405,648) scale(4.5)"><rect width="6" height="6"/></g>
<g transform="translate(432,648) scale(4.5)"><rect width="6" height="6"/></g>
<g transform="translate(459,648) scale(4.5)"><rect width="6" height="6"/></g>
<g transform="translate(486,648) scale(4.5)"><rect width="6" height="6"/></g>
<g transform="translate(702,648) scale(4.5)"><rect width="6" height="6"/></g>
<g transform="translate(783,648) scale(4.5)"><rect width="6" height="6"/></g>
<g transform="translate(810,648) scale(4.5)"><rect width="6" height="6"/></g>
<g transform="translate(837,648) scale(4.5)"><rect width="6" height="6"/></g>
<g transform="translate(864,648) scale(4.5)"><rect width="6" height="6"/></g>
<g transform="translate(891,648) scale(4.5)"><rect width="6" height="6"/></g>
<g transform="translate(54,675) scale(4.5)"><rect width="6" height="6"/></g>
<g transform="translate(108,675) scale(4.5)"><rect width="6" height="6"/></g>
<g transform="translate(135,675) scale(4.5)"><rect width="6" height="6"/></g>
<g transform="translate(189,675) scale(4.5)"><rect width="6" height="6"/></g>
<g transform="translate(243,675) scale(4.5)"><rect width="6" height="6"/></g>
<g transform="translate(351,675) scale(4.5)"><rect width="6" height="6"/></g>
<g transform="translate(378,675) scale(4.5)"><rect width="6" height="6"/></g>
<g transform="translate(432,675) scale(4.5)"><rect width="6" height="6"/></g>
<g transform="translate(486,675) scale(4.5)"><rect width="6" height="6"/></g>
<g transform="translate(540,675) scale(4.5)"><rect width="6" height="6"/></g>
<g transform="translate(594,675) scale(4.5)"><rect width="6" height="6"/></g>
<g transform="translate(621,675) scale(4.5)"><rect width="6" height="6"/></g>
<g transform="translate(675,675) scale(4.5)"><rect width="6" height="6"/></g>
<g transform="translate(810,675) scale(4.5)"><rect width="6" height="6"/></g>
<g transform="translate(837,675) scale(4.5)"><rect width="6" height="6"/></g>
<g transform="translate(864,675) scale(4.5)"><rect width="6" height="6"/></g>
<g transform="translate(891,675) scale(4.5)"><rect width="6" height="6"/></g>
<g transform="translate(54,702) scale(4.5)"><rect width="6" height="6"/></g>
<g transform="translate(216,702) scale(4.5)"><rect width="6" height="6"/></g>
<g transform="translate(243,702) scale(4.5)"><rect width="6" height="6"/></g>
<g transform="translate(270,702) scale(4.5)"><rect width="6" height="6"/></g>
<g transform="translate(297,702) scale(4.5)"><rect width="6" height="6"/></g>
<g transform="translate(324,702) scale(4.5)"><rect width="6" height="6"/></g>
<g transform="translate(351,702) scale(4.5)"><rect width="6" height="6"/></g>
<g transform="translate(378,702) scale(4.5)"><rect width="6" height="6"/></g>
<g transform="translate(459,702) scale(4.5)"><rect width="6" height="6"/></g>
<g transform="translate(486,702) scale(4.5)"><rect width="6" height="6"/></g>
<g transform="translate(513,702) scale(4.5)"><rect width="6" height="6"/></g>
<g transform="translate(594,702) scale(4.5)"><rect width="6" height="6"/></g>
<g transform="translate(648,702) scale(4.5)"><rect width="6" height="6"/></g>
<g transform="translate(675,702) scale(4.5)"><rect width="6" height="6"/></g>
<g transform="translate(702,702) scale(4.5)"><rect width="6" height="6"/></g>
<g transform="translate(729,702) scale(4.5)"><rect width="6" height="6"/></g>
<g transform="translate(756,702) scale(4.5)"><rect width="6" height="6"/></g>
<g transform="translate(783,702) scale(4.5)"><rect width="6" height="6"/></g>
<g transform="translate(810,702) scale(4.5)"><rect width="6" height="6"/></g>
<g transform="translate(891,702) scale(4.5)"><rect width="6" height="6"/></g>
<g transform="translate(270,729) scale(4.5)"><rect width="6" height="6"/></g>
<g transform="translate(324,729) scale(4.5)"><rect width="6" height="6"/></g>
<g transform="translate(351,729) scale(4.5)"><rect width="6" height="6"/></g>
<g transform="translate(540,729) scale(4.5)"><rect width="6" height="6"/></g>
<g transform="translate(567,729) scale(4.5)"><rect width="6" height="6"/></g>
<g transform="translate(702,729) scale(4.5)"><rect width="6" height="6"/></g>
<g transform="translate(810,729) scale(4.5)"><rect width="6" height="6"/></g>
<g transform="translate(837,729) scale(4.5)"><rect width="6" height="6"/></g>
<g transform="translate(864,729) scale(4.5)"><rect width="6" height="6"/></g>
<g transform="translate(918,729) scale(4.5)"><rect width="6" height="6"/></g>
<g transform="translate(297,756) scale(4.5)"><rect width="6" height="6"/></g>
<g transform="translate(351,756) scale(4.5)"><rect width="6" height="6"/></g>
<g transform="translate(432,756) scale(4.5)"><rect width="6" height="6"/></g>
<g transform="translate(459,756) scale(4.5)"><rect width="6" height="6"/></g>
<g transform="translate(513,756) scale(4.5)"><rect width="6" height="6"/></g>
<g transform="translate(594,756) scale(4.5)"><rect width="6" height="6"/></g>
<g transform="translate(621,756) scale(4.5)"><rect width="6" height="6"/></g>
<g transform="translate(648,756) scale(4.5)"><rect width="6" height="6"/></g>
<g transform="translate(675,756) scale(4.5)"><rect width="6" height="6"/></g>
<g transform="translate(702,756) scale(4.5)"><rect width="6" height="6"/></g>
<g transform="translate(756,756) scale(4.5)"><rect width="6" height="6"/></g>
<g transform="translate(810,756) scale(4.5)"><rect width="6" height="6"/></g>
<g transform="translate(864,756) scale(4.5)"><rect width="6" height="6"/></g>
<g transform="translate(891,756) scale(4.5)"><rect width="6" height="6"/></g>
<g transform="translate(324,783) scale(4.5)"><rect width="6" height="6"/></g>
<g transform="translate(351,783) scale(4.5)"><rect width="6" height="6"/></g>
<g transform="translate(405,783) scale(4.5)"><rect width="6" height="6"/></g>
<g transform="translate(459,783) scale(4.5)"><rect width="6" height="6"/></g>
<g transform="translate(486,783) scale(4.5)"><rect width="6" height="6"/></g>
<g transform="translate(567,783) scale(4.5)"><rect width="6" height="6"/></g>
<g transform="translate(621,783) scale(4.5)"><rect width="6" height="6"/></g>
<g transform="translate(648,783) scale(4.5)"><rect width="6" height="6"/></g>
<g transform="translate(675,783) scale(4.5)"><rect width="6" height="6"/></g>
<g transform="translate(702,783) scale(4.5)"><rect width="6" height="6"/></g>
<g transform="translate(810,783) scale(4.5)"><rect width="6" height="6"/></g>
<g transform="translate(837,783) scale(4.5)"><rect width="6" height="6"/></g>
<g transform="translate(864,783) scale(4.5)"><rect width="6" height="6"/></g>
<g transform="translate(891,783) scale(4.5)"><rect width="6" height="6"/></g>
<g transform="translate(918,783) scale(4.5)"><rect width="6" height="6"/></g>
<g transform="translate(270,810) scale(4.5)"><rect width="6" height="6"/></g>
<g transform="translate(351,810) scale(4.5)"><rect width="6" height="6"/></g>
<g transform="translate(405,810) scale(4.5)"><rect width="6" height="6"/></g>
<g transform="translate(486,810) scale(4.5)"><rect width="6" height="6"/></g>
<g transform="translate(567,810) scale(4.5)"><rect width="6" height="6"/></g>
<g transform="translate(621,810) scale(4.5)"><rect width="6" height="6"/></g>
<g transform="translate(702,810) scale(4.5)"><rect width="6" height="6"/></g>
<g transform="translate(729,810) scale(4.5)"><rect width="6" height="6"/></g>
<g transform="translate(756,810) scale(4.5)"><rect width="6" height="6"/></g>
<g transform="translate(783,810) scale(4.5)"><rect width="6" height="6"/></g>
<g transform="translate(810,810) scale(4.5)"><rect width="6" height="6"/></g>
<g transform="translate(891,810) scale(4.5)"><rect width="6" height="6"/></g>
<g transform="translate(918,810) scale(4.5)"><rect width="6" height="6"/></g>
<g transform="translate(270,837) scale(4.5)"><rect width="6" height="6"/></g>
<g transform="translate(324,837) scale(4.5)"><rect width="6" height="6"/></g>
<g transform="translate(594,837) scale(4.5)"><rect width="6" height="6"/></g>
<g transform="translate(621,837) scale(4.5)"><rect width="6" height="6"/></g>
<g transform="translate(729,837) scale(4.5)"><rect width="6" height="6"/></g>
<g transform="translate(810,837) scale(4.5)"><rect width="6" height="6"/></g>
<g transform="translate(837,837) scale(4.5)"><rect width="6" height="6"/></g>
<g transform="translate(864,837) scale(4.5)"><rect width="6" height="6"/></g>
<g transform="translate(918,837) scale(4.5)"><rect width="6" height="6"/></g>
<g transform="translate(270,864) scale(4.5)"><rect width="6" height="6"/></g>
<g transform="translate(324,864) scale(4.5)"><rect width="6" height="6"/></g>
<g transform="translate(378,864) scale(4.5)"><rect width="6" height="6"/></g>
<g transform="translate(486,864) scale(4.5)"><rect width="6" height="6"/></g>
<g transform="translate(513,864) scale(4.5)"><rect width="6" height="6"/></g>
<g transform="translate(567,864) scale(4.5)"><rect width="6" height="6"/></g>
<g transform="translate(648,864) scale(4.5)"><rect width="6" height="6"/></g>
<g transform="translate(675,864) scale(4.5)"><rect width="6" height="6"/></g>
<g transform="translate(729,864) scale(4.5)"><rect width="6" height="6"/></g>
<g transform="translate(756,864) scale(4.5)"><rect width="6" height="6"/></g>
<g transform="translate(864,864) scale(4.5)"><rect width="6" height="6"/></g>
<g transform="translate(378,891) scale(4.5)"><rect width="6" height="6"/></g>
<g transform="translate(405,891) scale(4.5)"><rect width="6" height="6"/></g>
<g transform="translate(432,891) scale(4.5)"><rect width="6" height="6"/></g>
<g transform="translate(540,891) scale(4.5)"><rect width="6" height="6"/></g>
<g transform="translate(567,891) scale(4.5)"><rect width="6" height="6"/></g>
<g transform="translate(594,891) scale(4.5)"><rect width="6" height="6"/></g>
<g transform="translate(621,891) scale(4.5)"><rect width="6" height="6"/></g>
<g transform="translate(729,891) scale(4.5)"><rect width="6" height="6"/></g>
<g transform="translate(756,891) scale(4.5)"><rect width="6" height="6"/></g>
<g transform="translate(783,891) scale(4.5)"><rect width="6" height="6"/></g>
<g transform="translate(837,891) scale(4.5)"><rect width="6" height="6"/></g>
<g transform="translate(864,891) scale(4.5)"><rect width="6" height="6"/></g>
<g transform="translate(405,918) scale(4.5)"><rect width="6" height="6"/></g>
<g transform="translate(432,918) scale(4.5)"><rect width="6" height="6"/></g>
<g transform="translate(459,918) scale(4.5)"><rect width="6" height="6"/></g>
<g transform="translate(540,918) scale(4.5)"><rect width="6" height="6"/></g>
<g transform="translate(648,918) scale(4.5)"><rect width="6" height="6"/></g>
<g transform="translate(675,918) scale(4.5)"><rect width="6" height="6"/></g>
<g transform="translate(702,918) scale(4.5)"><rect width="6" height="6"/></g>
<g transform="translate(891,918) scale(4.5)"><rect width="6" height="6"/></g>
</g></mask></defs>
<rect width="999" height="999" fill="#ffffff" x="0" y="0" />
<rect x="0" y="0" width="999" height="999" mask="url(#qrmask)" fill="#000000" />
<g transform="translate(54,54)"  fill="#000000"><g transform="scale(13.5)"><path d="M0,0v14h14V0H0z M12,12H2V2h10V12z"/></g></g>
<g transform="translate(756,54)"  fill="#000000"><g transform="scale(13.5)"><path d="M0,0v14h14V0H0z M12,12H2V2h10V12z"/></g></g>
<g transform="translate(54,756)"  fill="#000000"><g transform="scale(13.5)"><path d="M0,0v14h14V0H0z M12,12H2V2h10V12z"/></g></g>
<g transform="translate(108,108)"  fill="#000000"><g transform="scale(13.5)"><rect width="6" height="6"/></g></g>
<g transform="translate(810,108)"  fill="#000000"><g transform="scale(13.5)"><rect width="6" height="6"/></g></g>
<g transform="translate(108,810)"  fill="#000000"><g transform="scale(13.5)"><rect width="6" height="6"/></g></g>
</svg>